<svg x="1726594135249" class="icon" viewBox="0 0 1024 1024" xmlns="http://www.w3.org/2000/svg"
     p-id="4252" width="256" height="256">
    <path d="M714.666667 87.466667H311.466667c-46.933333 0-85.333333 38.4-85.333334 85.333333V851.2c0 46.933333 38.4 85.333333 85.333334 85.333333h403.2c46.933333 0 85.333333-38.4 85.333333-85.333333V172.8c0-46.933333-38.4-85.333333-85.333333-85.333333z m-445.866667 85.333333c0-23.466667 19.2-42.666667 42.666667-42.666667h403.2c23.466667 0 42.666667 19.2 42.666666 42.666667v34.133333H268.8V172.8z m445.866667 721.066667H311.466667c-23.466667 0-42.666667-19.2-42.666667-42.666667v-34.133333H405.333333c12.8 0 21.333333-8.533333 21.333334-21.333334s-8.533333-21.333333-21.333334-21.333333h-136.533333V249.6h488.533333v524.8H618.666667c-12.8 0-21.333333 8.533333-21.333334 21.333333s8.533333 21.333333 21.333334 21.333334h138.666666v34.133333c0 23.466667-19.2 42.666667-42.666666 42.666667z"
          fill="#ffffff" p-id="4253"></path>
    <path d="M512 795.733333m-32 0a32 32 0 1 0 64 0 32 32 0 1 0-64 0Z" fill="#ffffff"
          p-id="4254"/>
</svg>
