<svg x="1726594316293" class="icon" viewBox="0 0 1024 1024" xmlns="http://www.w3.org/2000/svg"
     p-id="6488" width="256" height="256">
    <path d="M987.428571 86.857143H36.571429c-20.228571 0-36.571429 16.342857-36.571429 36.571428v566.857143c0 20.228571 16.342857 36.571429 36.571429 36.571429h434.285714v128H274.285714c-10.057143 0-18.285714 8.228571-18.285714 18.285714v54.857143c0 5.028571 4.114286 9.142857 9.142857 9.142857h493.714286c5.028571 0 9.142857-4.114286 9.142857-9.142857v-54.857143c0-10.057143-8.228571-18.285714-18.285714-18.285714H553.142857V726.857143h434.285714c20.228571 0 36.571429-16.342857 36.571429-36.571429V123.428571c0-20.228571-16.342857-36.571429-36.571429-36.571428z m-45.714285 557.714286H82.285714V169.142857h859.428572v475.428572z"
          p-id="6489" fill="#ffffff"/>
</svg>
