<svg x="1726716682690" class="icon" viewBox="0 0 1024 1024" xmlns="http://www.w3.org/2000/svg"
     p-id="4378" width="256" height="256">
    <path d="M953.12 733.984c43.776 71.84 50.912 144 18.592 201.12S872.928 1024 784.672 1024H238.688c-88.256 0-154.688-31.584-187.168-88.896s-25.152-129.28 19.936-203.488L319.424 255.2V80.928h-118.4V0H823.648v80.8h-118.4v174.336zM142.304 771.2c-30.208 49.792-37.024 94.208-20.032 124.224s59.648 47.808 116.416 47.808h545.984c56.8 0 99.2-17.44 116.416-47.808s10.176-74.432-18.72-121.92l-101.088-195.2H242.72zM624.064 274.912V80.96h-223.456v194.016l-118.24 227.2h459.552z m91.392 641.472a67.36 67.36 0 1 1 67.68-67.36 67.52 67.52 0 0 1-67.68 67.328z m-152.32-151.584a67.36 67.36 0 1 1 67.68-67.36 67.52 67.52 0 0 1-67.68 67.36z"
          fill="#ffffff" p-id="4379"/>
</svg>
