<svg width="441.75" height="200" viewBox="0 0 2356 1475" fill="none" xmlns="http://www.w3.org/2000/svg"
     xmlns:xlink="http://www.w3.org/1999/xlink" version="1.1">

    <g transform="translate(0, 0)">
        <svg xmlns="http://www.w3.org/2000/svg" width="256" height="256" fill="none" viewBox="0 0 256 256">
            <rect width="256" height="256" fill="#242938" rx="60"/>
            <path fill="#31A8FF"
                  d="M57.6001 178.04V68.2799C57.6001 67.5332 57.9201 67.1066 58.6668 67.1066C60.4801 67.1066 62.1868 67.1066 64.6401 66.9999C67.2001 66.8932 69.8668 66.8932 72.7468 66.7866C75.6268 66.6799 78.7201 66.6799 82.0268 66.5732C85.3334 66.4666 88.5334 66.4666 91.7334 66.4666C100.48 66.4666 107.733 67.5332 113.707 69.7732C119.04 71.5866 123.947 74.5732 128 78.5199C131.413 81.9332 134.08 86.0932 135.787 90.6799C137.387 95.1599 138.24 99.7466 138.24 104.547C138.24 113.72 136.107 121.293 131.84 127.267C127.573 133.24 121.6 137.72 114.667 140.28C107.413 142.947 99.4134 143.907 90.6668 143.907C88.1068 143.907 86.4001 143.907 85.3334 143.8C84.2668 143.693 82.7734 143.693 80.7468 143.693V177.933C80.8534 178.68 80.3201 179.32 79.5734 179.427C79.4668 179.427 79.3601 179.427 79.1468 179.427H58.8801C58.0268 179.427 57.6001 179 57.6001 178.04ZM80.8534 87.6932V123.533C82.3468 123.64 83.7334 123.747 85.0134 123.747H90.6668C94.8268 123.747 98.9868 123.107 102.933 121.827C106.347 120.867 109.333 118.84 111.68 116.173C113.92 113.507 114.987 109.88 114.987 105.187C115.093 101.88 114.24 98.5732 112.533 95.6932C110.72 92.9199 108.16 90.7866 105.067 89.6132C101.12 88.0132 96.8534 87.3732 92.4801 87.4799C89.7068 87.4799 87.2534 87.4799 85.2268 87.5866C83.0934 87.4799 81.6001 87.5866 80.8534 87.6932Z"/>
            <path fill="#31A8FF"
                  d="M204.8 117.027C201.6 115.32 198.187 114.147 194.56 113.4C190.613 112.547 186.667 112.013 182.613 112.013C180.48 111.907 178.24 112.227 176.213 112.76C174.827 113.08 173.653 113.827 172.907 114.893C172.373 115.747 172.053 116.813 172.053 117.773C172.053 118.733 172.48 119.693 173.12 120.547C174.08 121.72 175.36 122.68 176.747 123.427C179.2 124.707 181.76 125.88 184.32 126.947C190.08 128.867 195.627 131.533 200.747 134.733C204.267 136.973 207.147 139.96 209.173 143.587C210.88 147 211.733 150.733 211.627 154.573C211.733 159.587 210.24 164.6 207.467 168.76C204.48 173.027 200.32 176.333 195.52 178.253C190.293 180.493 183.893 181.667 176.213 181.667C171.307 181.667 166.507 181.24 161.707 180.28C157.973 179.64 154.24 178.467 150.827 176.867C150.08 176.44 149.547 175.693 149.653 174.84V156.28C149.653 155.96 149.76 155.533 150.08 155.32C150.4 155.107 150.72 155.213 151.04 155.427C155.2 157.88 159.573 159.587 164.267 160.653C168.32 161.72 172.587 162.253 176.853 162.253C180.907 162.253 183.787 161.72 185.707 160.76C187.413 160.013 188.587 158.2 188.587 156.28C188.587 154.787 187.733 153.4 186.027 152.013C184.32 150.627 180.8 149.027 175.573 147C170.133 145.08 165.12 142.52 160.427 139.32C157.12 136.973 154.347 133.88 152.32 130.253C150.613 126.84 149.76 123.107 149.867 119.373C149.867 114.787 151.147 110.413 153.493 106.467C156.16 102.2 160.107 98.7866 164.693 96.6532C169.707 94.0932 176 92.9199 183.573 92.9199C187.947 92.9199 192.427 93.2399 196.8 93.8799C200 94.3066 203.093 95.1599 205.973 96.3332C206.4 96.4399 206.827 96.8666 207.04 97.2932C207.147 97.7199 207.253 98.1466 207.253 98.5732V115.96C207.253 116.387 207.04 116.813 206.72 117.027C205.76 117.24 205.227 117.24 204.8 117.027Z"/>
        </svg>
    </g>

    <g transform="translate(300, 0)">
        <svg xmlns="http://www.w3.org/2000/svg" width="256" height="256" fill="none" viewBox="0 0 256 256">
            <rect width="256" height="256" fill="#242938" rx="60"/>
            <g clip-path="url(#clip0_7_283)">
                <path fill="#99F"
                      d="M60.8 175.04V65.28c0-.747.32-1.173 1.067-1.173l1.548-.003l1.198-.01l.845-.016l.9-.023l.967-.034l.515-.021c.96-.04 1.935-.065 2.93-.086l3.055-.064q.521-.012 1.051-.028l1.07-.035q1.44-.052 2.952-.08l3.093-.055l2.141-.047l1.095-.032c2.204-.07 4.361-.094 6.502-.102l3.204-.004c8.747 0 16 1.066 21.974 3.306A38.1 38.1 0 0 1 131.2 75.52a34 34 0 0 1 7.787 12.16c1.6 4.48 2.453 9.067 2.453 13.867q0 13.76-6.4 22.72c-4.267 5.973-10.24 10.453-17.173 13.013c-7.012 2.578-14.721 3.56-23.128 3.623H91.69l-1.187-.012l-.761-.018l-.448-.019l-.402-.024l-.359-.03a16 16 0 0 0-.692-.052l-.52-.023l-.57-.015l-.951-.013l-1.853-.004v34.24c.106.747-.427 1.387-1.174 1.494H62.08c-.853 0-1.28-.427-1.28-1.387m23.253-90.347v35.84l1.254.09a43 43 0 0 0 2.906.124h5.654c4.16 0 8.32-.64 12.266-1.92c3.414-.96 6.4-2.987 8.747-5.654c2.24-2.666 3.307-6.293 3.307-10.986a17.56 17.56 0 0 0-2.454-9.494c-1.737-2.657-4.161-4.727-7.082-5.928l-.384-.152c-3.947-1.6-8.214-2.24-12.587-2.133l-2.466.003l-1.159.007l-1.107.015l-1.051.024q-.769.02-1.47.058a37 37 0 0 0-.688-.028l-.639-.014l-.3-.002l-.566.003l-.514.014l-.238.01l-.437.025l-.384.03l-.173.016l-.303.035zm72.32 6.187h18.667c1.007 0 1.825.666 2.182 1.549l.058.158c.32.853.533 1.706.64 2.666c.213 1.067.427 2.24.533 3.307l.09 1.032c.07.881.124 1.818.124 2.808a39.7 39.7 0 0 1 10.82-8.849l.593-.324c4.907-2.774 10.56-4.16 16.213-4.16c.747-.107 1.387.426 1.494 1.173v21.227c0 .853-.534 1.173-1.707 1.173c-3.584-.1-7.26.173-10.77.903l-.75.164q-4.64.96-8.96 2.88c-2.027.96-3.947 2.24-5.44 3.946v54.4c0 1.067-.427 1.494-1.387 1.494H157.76c-.853.106-1.6-.427-1.707-1.28v-59.52c0-2.56 0-5.227-.106-8l-.064-2.08l-.086-4.16q-.024-1.04-.064-2.08c0-2.454-.213-4.8-.426-7.254c-.107-.533.213-1.066.746-1.173c0-.091.157-.104.269-.04z"/>
            </g>
            <defs>
                <clipPath id="clip0_7_283">
                    <rect width="200" height="200" fill="#fff" transform="translate(28 28)"/>
                </clipPath>
            </defs>
        </svg>
    </g>

    <g transform="translate(600, 0)">
        <svg xmlns="http://www.w3.org/2000/svg" width="256" height="256" fill="none" viewBox="0 0 256 256">
            <rect width="256" height="256" fill="#242938" rx="60"/>
            <path fill="url(#paint0_linear_2_47)"
                  d="M127.279 29C76.5066 29 79.6772 51.018 79.6772 51.018L79.7338 73.8284H128.185V80.6772H60.4893C60.4893 80.6772 28 76.9926 28 128.222C28 179.452 56.3573 177.636 56.3573 177.636H73.2812V153.863C73.2812 153.863 72.369 125.506 101.186 125.506H149.24C149.24 125.506 176.239 125.942 176.239 99.4123V55.5461C176.239 55.5461 180.338 29 127.279 29ZM100.563 44.339C105.384 44.339 109.28 48.2351 109.28 53.0556C109.28 57.8761 105.384 61.7723 100.563 61.7723C95.7426 61.7723 91.8465 57.8761 91.8465 53.0556C91.8465 48.2351 95.7426 44.339 100.563 44.339Z"/>
            <path fill="url(#paint1_linear_2_47)"
                  d="M128.721 227.958C179.493 227.958 176.323 205.941 176.323 205.941L176.266 183.13H127.815V176.281H195.511C195.511 176.281 228 179.966 228 128.736C228 77.5062 199.643 79.323 199.643 79.323H182.719V103.096C182.719 103.096 183.631 131.453 154.814 131.453H106.76C106.76 131.453 79.7607 131.016 79.7607 157.546V201.412C79.7607 201.412 75.6615 227.958 128.721 227.958ZM155.437 212.619C150.616 212.619 146.72 208.723 146.72 203.903C146.72 199.082 150.616 195.186 155.437 195.186C160.257 195.186 164.154 199.082 164.154 203.903C164.154 208.723 160.257 212.619 155.437 212.619Z"/>
            <defs>
                <linearGradient id="paint0_linear_2_47" x1="47.22" x2="146.333" y1="46.896" y2="145.02"
                                gradientUnits="userSpaceOnUse">
                    <stop stop-color="#387EB8"/>
                    <stop offset="1" stop-color="#366994"/>
                </linearGradient>
                <linearGradient id="paint1_linear_2_47" x1="108.056" x2="214.492" y1="109.905" y2="210.522"
                                gradientUnits="userSpaceOnUse">
                    <stop stop-color="#FFE052"/>
                    <stop offset="1" stop-color="#FFC331"/>
                </linearGradient>
            </defs>
        </svg>
    </g>

    <g transform="translate(900, 0)">
        <svg xmlns="http://www.w3.org/2000/svg" width="256" height="256" viewBox="0 0 256 256">
            <path fill="url(#IconifyId192092c005354069527)"
                  d="m179.493 40.4l74.8 62.213l-26.933 54.8l-45.093-12.506h-39.014z"/>
            <path fill="url(#IconifyId192092c005354069528)"
                  d="m104.133 80.8l-14.48 76.613l-1.386 26.027l-36.507 15.813L0 204.827l15.707-165.52L109.493 0l57.787 37.893z"/>
            <path fill="url(#IconifyId192092c005354069529)"
                  d="m104.133 80.8l7.04 147.627L87.787 256L0 204.827L72.08 97.413z"/>
            <path fill="url(#IconifyId192092c005354069530)" d="M200.72 70.027h-88.693L190.4 0z"/>
            <path fill="url(#IconifyId192092c005354069531)"
                  d="m256 229.013l-78.08 26.507l-103.973-29.28L104.133 80.8l12.054-10.773l63.306-5.947l-5.733 63.573l50.347-19.52z"/>
            <path fill="black" d="M48 48h160v160H48z"/>
            <path fill="#FFF"
                  d="M67.947 177.76h60v10h-60zM68 68h24.533c14.15 0 22.786 8.311 22.958 20.354l.002.526c0 13.867-10.8 21.067-24.24 21.067h-9.92v17.973H68zm23.627 30.213c6.475 0 10.321-3.788 10.45-8.806l.003-.42c0-5.92-4.107-9.094-10.667-9.094h-10.08v18.32zm31.013-.053V98a30.427 30.427 0 0 1 31.227-30.987a30.9 30.9 0 0 1 23.626 9.227l-8.373 9.68a22.2 22.2 0 0 0-15.333-6.773c-9.995 0-17.225 8.214-17.384 18.325L136.4 98c0 10.267 7.12 18.827 17.387 18.827c6.23 0 10.256-2.204 14.483-5.87l.636-.561q.32-.286.64-.583l8.374 8.454a30.56 30.56 0 0 1-24.56 10.666a30.267 30.267 0 0 1-30.72-30.773"/>
            <defs>
                <linearGradient id="IconifyId192092c005354069527" x1="-46.686%" x2="90.514%" y1="50%" y2="50%">
                    <stop offset="0%" stop-color="#21D789"/>
                    <stop offset="100%" stop-color="#07C3F2"/>
                </linearGradient>
                <linearGradient id="IconifyId192092c005354069528" x1="-19.16%" x2="105.922%" y1="105.481%" y2="-7.577%">
                    <stop offset="1%" stop-color="#FCF84A"/>
                    <stop offset="11%" stop-color="#A7EB62"/>
                    <stop offset="21%" stop-color="#5FE077"/>
                    <stop offset="27%" stop-color="#32DA84"/>
                    <stop offset="31%" stop-color="#21D789"/>
                    <stop offset="58%" stop-color="#21D789"/>
                    <stop offset="60%" stop-color="#21D789"/>
                    <stop offset="69%" stop-color="#20D68C"/>
                    <stop offset="76%" stop-color="#1ED497"/>
                    <stop offset="83%" stop-color="#19D1A9"/>
                    <stop offset="90%" stop-color="#13CCC2"/>
                    <stop offset="97%" stop-color="#0BC6E1"/>
                    <stop offset="100%" stop-color="#07C3F2"/>
                </linearGradient>
                <linearGradient id="IconifyId192092c005354069529" x1="42.23%" x2="61.179%" y1="115.967%" y2="22.253%">
                    <stop offset="0%" stop-color="#21D789"/>
                    <stop offset="16%" stop-color="#24D888"/>
                    <stop offset="30%" stop-color="#2FD985"/>
                    <stop offset="43%" stop-color="#41DC80"/>
                    <stop offset="55%" stop-color="#5AE079"/>
                    <stop offset="67%" stop-color="#7AE46F"/>
                    <stop offset="79%" stop-color="#A1EA64"/>
                    <stop offset="90%" stop-color="#CFF157"/>
                    <stop offset="100%" stop-color="#FCF84A"/>
                </linearGradient>
                <linearGradient id="IconifyId192092c005354069530" x1="-9.711%" x2="118.641%" y1="144.55%" y2="8.292%">
                    <stop offset="0%" stop-color="#21D789"/>
                    <stop offset="9%" stop-color="#23D986"/>
                    <stop offset="17%" stop-color="#2ADE7B"/>
                    <stop offset="25%" stop-color="#36E669"/>
                    <stop offset="27%" stop-color="#3BEA62"/>
                    <stop offset="35%" stop-color="#47EB61"/>
                    <stop offset="49%" stop-color="#67ED5D"/>
                    <stop offset="69%" stop-color="#9AF156"/>
                    <stop offset="92%" stop-color="#E0F64D"/>
                    <stop offset="100%" stop-color="#FCF84A"/>
                </linearGradient>
                <linearGradient id="IconifyId192092c005354069531" x1="105.92%" x2="-8.04%" y1="50.481%" y2="49.366%">
                    <stop offset="39%" stop-color="#FCF84A"/>
                    <stop offset="46%" stop-color="#ECF74C"/>
                    <stop offset="61%" stop-color="#C1F451"/>
                    <stop offset="82%" stop-color="#7EEF5A"/>
                    <stop offset="100%" stop-color="#3BEA62"/>
                </linearGradient>
            </defs>
        </svg>
    </g>

    <g transform="translate(1200, 0)">
        <svg xmlns="http://www.w3.org/2000/svg" width="256" height="256" fill="none" viewBox="0 0 1024 1024">
            <path d="M186.453333 782.506667c-38.4-3.84-76.8-11.093333-114.346666-21.333334l-3.413334-0.853333 0.853334-3.413333c11.093333-36.266667 25.173333-71.68 41.813333-105.386667l1.706667-3.413333 2.986666 1.706666c25.173333 14.08 52.053333 26.88 78.933334 37.973334l2.56 0.853333-0.426667 2.56c-4.266667 28.586667-6.4 58.026667-7.253333 87.466667v3.84h-3.413334zM269.226667 265.813333v-0.853333c-22.186667 0.426667-44.373333 1.706667-66.133334 4.266667 2.56 22.613333 6.826667 44.8 11.52 66.56 15.36-25.6 33.706667-49.066667 54.613334-69.973334zM190.293333 808.533333v-2.986666l-2.986666-0.426667c-32.426667-2.986667-65.28-8.533333-97.706667-16.213333l-8.533333-2.133334 4.693333 7.68c29.44 44.373333 65.28 83.626667 106.666667 116.906667l6.826666 5.546667-1.28-8.533334c-4.693333-34.133333-7.253333-67.84-7.68-99.84zM348.586667 29.866667c-39.68 13.653333-77.226667 32-111.786667 54.613333 26.026667 4.693333 52.053333 10.666667 77.226667 18.346667 10.24-25.173333 21.76-49.066667 34.56-72.96z m165.12-27.306667c-19.626667 0-38.826667 1.28-58.026667 3.413333 26.88 18.773333 52.906667 39.253333 77.226667 61.866667l20.48 18.773333-20.053334 19.2c-16.64 15.786667-32.426667 32.853333-47.786666 51.2l-0.853334 0.853334s-2.986667 3.413333-7.68 8.96c11.946667-1.28 24.32-2.133333 36.693334-2.133334a347.306667 347.306667 0 0 1 0 694.613334c-66.56 0-128.853333-18.773333-181.333334-51.2-26.026667 2.986667-52.053333 4.266667-78.506666 4.266666-12.373333 0-24.32-0.426667-36.693334-0.853333 0.853333 39.68 4.693333 80.213333 11.093334 122.88 81.493333 55.04 179.626667 87.466667 285.44 87.466667 281.6 0 509.44-228.266667 509.44-509.44 0-281.6-227.84-509.866667-509.44-509.866667z m-67.413334 120.32c10.24-11.946667 20.48-23.466667 31.146667-34.986667-23.893333-20.48-49.066667-38.826667-75.52-55.466666-16.213333 27.306667-30.293333 55.893333-42.24 84.906666 23.04 8.533333 45.226667 18.346667 67.413333 29.013334 9.813333-13.226667 17.066667-20.906667 19.2-23.466667zM100.266667 413.866667l2.133333 2.986666 2.986667-2.133333c23.466667-17.066667 48.213333-32.853333 73.813333-46.933333l2.56-0.853334-0.853333-2.986666c-7.68-28.586667-13.653333-58.453333-17.493334-88.746667l-0.426666-3.413333-3.413334 0.853333c-37.546667 6.826667-75.093333 17.066667-110.933333 29.866667l-3.413333 1.28 1.28 3.413333c14.933333 36.693333 32.853333 72.533333 53.76 106.666667z m-5.973334 49.066666l-2.986666 2.133334C64 487.253333 37.973333 512 14.08 538.453333l-2.56 2.56 2.56 2.133334c26.453333 23.04 55.04 44.373333 84.906667 63.146666l2.986666 2.133334 1.706667-2.986667c13.226667-23.893333 28.586667-47.36 44.8-69.973333l1.706667-2.133334-1.706667-2.133333c-18.773333-20.906667-36.266667-42.666667-52.48-65.706667l-1.706667-2.56z m200.106667 321.28l8.96-0.426666-6.826667-5.546667a330.368 330.368 0 0 1-69.973333-78.08v-0.853333l-5.546667-2.56-0.853333 4.693333c-3.413333 25.6-5.546667 52.053333-5.973333 79.36v3.413333h3.413333c11.946667 0.853333 24.32 0.853333 36.266667 0.853334 13.226667 0.426667 26.88 0 40.533333-0.853334zM277.333333 221.44c5.546667-25.173333 12.373333-49.92 20.48-74.24-32-8.96-64.853333-15.786667-97.706666-20.48-2.986667 33.28-3.413333 66.56-1.28 99.413333 26.026667-2.986667 52.48-4.266667 78.506666-4.693333z m49.066667-1.706667c22.186667-14.08 46.08-26.026667 71.253333-34.986666-17.92-8.106667-35.84-15.786667-54.613333-22.613334-6.4 18.773333-11.946667 38.4-16.64 57.6z m-236.8 413.866667l-2.56-1.706667c-26.453333-16.64-51.626667-34.986667-75.52-54.613333l-6.826667-5.546667 1.28 8.96c6.4 49.066667 20.053333 96.426667 40.106667 141.653334l3.413333 8.106666 2.986667-8.106666c9.813333-29.013333 22.186667-57.6 35.84-84.906667l1.28-3.84zM154.88 150.186667c-30.293333 30.293333-57.173333 64-78.933333 101.12 26.453333-7.68 52.906667-14.08 79.786666-18.773334-1.706667-27.306667-2.133333-54.613333-0.853333-82.346666z m15.36 357.546666l0.426667-8.96c1.28-31.146667 6.4-61.44 15.786666-90.88l2.56-8.533333-7.68 4.266667c-20.053333 11.52-39.68 24.32-58.453333 37.973333l-2.986667 2.133333 2.133334 2.986667c13.226667 18.773333 27.306667 37.12 42.24 54.613333l5.973333 6.4z m3.413333 52.053334l-1.28-8.533334-5.12 7.68c-14.08 20.053333-27.306667 40.533333-39.253333 61.866667l-1.706667 2.986667 2.986667 1.706666c21.333333 11.946667 43.946667 23.04 66.56 32.853334l8.106667 3.413333-3.84-8.106667c-13.226667-29.866667-22.186667-61.44-26.453334-93.866666z m-99.413333-121.6l2.56-2.133334-1.706667-2.56c-15.786667-25.6-30.293333-52.48-43.093333-79.786666l-3.84-7.68-2.56 8.533333C10.666667 400.64 2.56 448.853333 1.28 497.493333l-0.426667 8.96 6.4-6.4c20.906667-22.186667 43.52-43.52 66.986667-61.866666z"
                  fill="#3cac49"/>
        </svg>
    </g>

    <g transform="translate(1500, 0)">
        <svg xmlns="http://www.w3.org/2000/svg" width="256" height="256" fill="none" viewBox="0 0 256 256">
            <rect width="256" height="256" fill="#242938" rx="60"/>
            <path fill="#2489CA"
                  d="M33.7158 100.208C33.7158 100.208 28.9814 96.795 34.6627 92.2381L47.8994 80.402C47.8994 80.402 51.6869 76.4172 55.6915 79.8891L177.84 172.368V216.714C177.84 216.714 177.781 223.678 168.844 222.908L33.7158 100.208Z"/>
            <path fill="#1070B3"
                  d="M65.1997 128.792L33.7157 157.415C33.7157 157.415 30.4805 159.822 33.7157 164.123L48.3333 177.418C48.3333 177.418 51.8052 181.147 56.9341 176.905L90.3119 151.596L65.1997 128.792Z"/>
            <path fill="#0877B9"
                  d="M120.474 129.029L178.215 84.9391L177.84 40.83C177.84 40.83 175.374 31.2033 167.148 36.2139L90.312 106.145L120.474 129.029Z"/>
            <path fill="#3C99D4"
                  d="M168.844 222.968C172.198 226.4 176.262 225.276 176.262 225.276L221.259 203.103C227.019 199.177 226.21 194.305 226.21 194.305V61.8982C226.21 56.0788 220.252 54.0667 220.252 54.0667L181.253 35.267C172.731 30 167.148 36.2139 167.148 36.2139C167.148 36.2139 174.328 31.0455 177.84 40.83V215.905C177.84 217.109 177.583 218.292 177.071 219.358C176.045 221.429 173.816 223.362 168.47 222.553L168.844 222.968Z"/>
        </svg>
    </g>

    <g transform="translate(1800, 0)">
        <svg xmlns="http://www.w3.org/2000/svg" width="256" height="256" fill="none" viewBox="0 0 256 256">
            <rect width="256" height="256" fill="#242938" rx="60"/>
            <path fill="#41CD52" fill-rule="evenodd"
                  d="M99.5884 90.2637C90.8797 90.2637 84.8736 93.0035 81.5703 98.5552C78.3421 104.107 76.6904 112.903 76.6904 125.088C76.6904 137.201 78.267 145.925 81.4202 151.116C84.5733 156.307 90.6544 158.975 99.5884 158.975C108.522 158.975 114.528 156.38 117.682 151.26C120.76 146.141 122.336 137.417 122.336 125.232C122.336 112.975 120.76 104.107 117.531 98.5552C114.303 93.0035 108.297 90.2637 99.5884 90.2637"
                  clip-rule="evenodd"/>
            <path fill="#41CD52" fill-rule="evenodd"
                  d="M178.837 169.771C170.903 169.771 165.464 168.063 162.516 164.647C159.57 161.232 158.059 154.755 158.059 145.22V114.477H147.331V102.237H158.059V83.0234H173.246V102.237H192.587V114.548H173.246V143.654C173.246 149.062 173.699 152.62 174.53 154.329C175.36 156.108 177.552 156.962 180.952 156.962L192.436 156.534L193.116 168.063C186.921 169.201 182.16 169.771 178.837 169.771V169.771ZM135.091 183.576L120.66 189.91L108.194 170.624C106.38 171.123 103.585 171.408 99.656 171.408C85.0741 171.408 74.8743 167.707 69.1322 160.306C63.3901 152.906 60.5191 141.164 60.5191 125.222C60.5191 109.211 63.4657 97.3272 69.2833 89.5704C75.101 81.8129 85.2252 77.8989 99.656 77.8989C114.087 77.8989 124.211 81.7425 129.953 89.4992C135.771 97.1849 138.642 109.069 138.642 125.152C138.642 135.755 137.433 144.294 135.091 150.771C132.672 157.318 128.82 162.299 123.38 165.715L135.091 183.576ZM217.369 51H209.663H47.7505L17 79.9634V176.816V184.715V204.783H38.3062H46.0127H207.925L238.675 175.82V78.9664V71.068V51H217.369Z"
                  clip-rule="evenodd"/>
        </svg>
    </g>

    <g transform="translate(2100, 0)">
        <svg xmlns="http://www.w3.org/2000/svg" width="256" height="256" viewBox="0 0 256 256" fill="none">
            <g clip-path="url(#clip0_307_145)">
                <path d="M60 0C26.8629 0 0 26.8629 0 60V196C0 229.137 26.8629 256 60 256H168.46C166.681 250.757 165.288 242.454 164.504 232.977C163.829 224.825 163.605 215.806 163.979 207.107C163.878 205.821 163.817 204.985 163.817 204.985C163.817 204.985 161.943 192.375 159.246 182.016C158.052 177.418 156.693 173.26 155.266 170.85C154.531 169.607 155.346 164.499 157.397 156.934C158.597 159.005 163.66 167.866 164.677 170.722C165.822 173.95 166.062 174.875 166.062 174.875C166.062 174.875 163.285 160.603 158.729 152.275C159.728 148.908 160.921 145.187 162.271 141.209C163.849 143.976 167.436 150.33 168.732 153.341C168.852 153.62 168.96 153.882 169.039 154.098C169.223 154.62 169.378 155.063 169.517 155.469C170.248 157.587 170.426 158.261 170.426 158.261C170.426 158.261 170.155 156.875 169.651 154.737C169.438 153.834 169.173 152.772 168.878 151.641C167.73 147.232 165.986 141.46 163.753 136.937C169.485 107.143 187.934 68.1305 207.81 47.0689C209.523 45.2554 211.244 43.5577 212.968 42.0275C224.587 31.7274 236.36 28.2483 246.083 36.9095C253.117 43.1773 255.995 51.8346 256 61.8004V60C256 26.8629 229.137 0 196 0H60Z"
                      fill="#D9D9D9"/>
                <path d="M60 0C26.8629 0 0 26.8629 0 60V196C0 229.137 26.8629 256 60 256H168.46C166.681 250.757 165.288 242.454 164.504 232.977C163.829 224.825 163.605 215.806 163.979 207.107C163.878 205.821 163.817 204.985 163.817 204.985C163.817 204.985 161.943 192.375 159.246 182.016C158.052 177.418 156.693 173.26 155.266 170.85C154.531 169.607 155.346 164.499 157.397 156.934C158.597 159.005 163.66 167.866 164.677 170.722C165.822 173.95 166.062 174.875 166.062 174.875C166.062 174.875 163.285 160.603 158.729 152.275C159.728 148.908 160.921 145.187 162.271 141.209C163.849 143.976 167.436 150.33 168.732 153.341C168.852 153.62 168.96 153.882 169.039 154.098C169.223 154.62 169.378 155.063 169.517 155.469C170.248 157.587 170.426 158.261 170.426 158.261C170.426 158.261 170.155 156.875 169.651 154.737C169.438 153.834 169.173 152.772 168.878 151.641C167.73 147.232 165.986 141.46 163.753 136.937C169.485 107.143 187.934 68.1305 207.81 47.0689C209.523 45.2554 211.244 43.5577 212.968 42.0275C224.587 31.7274 236.36 28.2483 246.083 36.9095C253.117 43.1773 255.995 51.8346 256 61.8004V60C256 26.8629 229.137 0 196 0H60Z"
                      fill="url(#paint0_linear_307_145)"/>
                <path d="M246.083 36.9095C236.36 28.2483 224.587 31.7274 212.968 42.0275C211.244 43.5577 209.523 45.2554 207.81 47.0689C187.934 68.1305 169.485 107.143 163.753 136.937C165.986 141.46 167.73 147.232 168.878 151.641C169.173 152.772 169.438 153.834 169.651 154.737C170.155 156.875 170.426 158.261 170.426 158.261C170.426 158.261 170.248 157.587 169.517 155.469C169.378 155.063 169.223 154.62 169.039 154.098C168.96 153.882 168.852 153.62 168.732 153.341C167.436 150.33 163.849 143.976 162.271 141.209C160.921 145.187 159.728 148.908 158.729 152.275C163.285 160.603 166.062 174.875 166.062 174.875C166.062 174.875 165.822 173.95 164.677 170.722C163.66 167.866 158.597 159.005 157.397 156.934C155.346 164.499 154.531 169.607 155.266 170.85C156.693 173.26 158.052 177.418 159.246 182.016C161.943 192.375 163.817 204.985 163.817 204.985C163.817 204.985 163.878 205.821 163.979 207.107C163.605 215.806 163.829 224.825 164.504 232.977C165.397 243.768 167.079 253.039 169.223 258L170.678 257.207C167.53 247.433 166.251 234.623 166.811 219.849C167.658 197.268 172.861 170.036 182.473 141.653C198.713 98.8063 221.245 64.4287 241.867 48.0113C223.071 64.9667 197.632 119.85 190.017 140.174C181.491 162.933 175.448 184.291 171.807 204.753C178.09 185.57 198.405 177.324 198.405 177.324C198.405 177.324 208.369 165.05 220.013 147.514C213.038 149.103 201.585 151.823 197.748 153.433C192.09 155.804 190.565 156.613 190.565 156.613C190.565 156.613 208.895 145.463 224.621 140.415C246.249 106.39 269.811 58.0531 246.083 36.9095"
                      fill="#003B57"/>
                <path d="M28.5202 49C25.4571 49 22.9663 49.8947 21.0568 51.6832C19.1473 53.4733 18.1786 55.8197 18.1786 58.6947C18.1786 60.1847 18.4192 61.5432 18.8932 62.788C19.3672 64.0354 20.1048 65.1909 21.0965 66.235C22.0882 67.2801 24.0732 68.6997 27.0315 70.5046C30.6616 72.6912 33.0372 74.4658 34.1773 75.8514C35.3183 77.2358 35.8844 78.6867 35.8844 80.1993C35.8844 82.2246 35.2087 83.8412 33.8201 85.0565C32.429 86.2722 30.5687 86.8779 28.2622 86.8779C25.8294 86.8779 23.7103 86.0317 21.8905 84.3514C20.0707 82.6686 19.1521 80.4429 19.1314 77.6532H18V87.7788H19.1314C19.4768 86.82 19.9548 86.3295 20.5804 86.3295C20.8814 86.3295 21.5864 86.5343 22.6845 86.917C25.3562 87.855 27.55 88.3076 29.2745 88.3076C32.2464 88.3076 34.7832 87.2806 36.8967 85.1935C39.0071 83.1074 40.0727 80.591 40.0727 77.6532C40.0727 75.3752 39.3692 73.3485 37.9885 71.5818C36.6077 69.813 33.9225 67.7556 29.9097 65.3929C26.4567 63.3459 24.2153 61.6787 23.1807 60.379C22.1446 59.0812 21.6126 57.6456 21.6126 56.0703C21.6126 54.3664 22.247 52.9977 23.4983 51.977C24.7496 50.9554 26.3892 50.4493 28.4408 50.4493C30.7497 50.4493 32.6743 51.1254 34.1972 52.4862C35.7185 53.8493 36.5982 55.7383 36.857 58.1659H37.9885V49.3917H36.9364C36.8078 49.839 36.6887 50.125 36.5791 50.2535C36.4727 50.3812 36.2679 50.4493 35.9638 50.4493C35.5978 50.4493 34.9451 50.2973 34.0186 49.9988C32.0336 49.3392 30.2035 49 28.5202 49ZM65.4999 49C61.7674 49 58.3787 49.868 55.3171 51.6048C52.2507 53.3385 49.8235 55.7459 48.0323 58.8122C46.2419 61.8782 45.3526 65.1346 45.3526 68.6048C45.3526 73.2671 46.8993 77.4206 50.0173 81.0611C53.1368 84.6993 56.8749 86.9663 61.2124 87.8376C62.2041 88.3474 63.6229 89.6635 65.48 91.7938C67.573 94.1978 69.3435 95.9318 70.7997 96.9643C72.2543 97.9974 73.8248 98.7545 75.4842 99.2558C77.1452 99.7549 78.9412 100 80.8832 100C83.235 100 85.3406 99.5967 87.1954 98.7661L86.7785 97.7477C85.7019 98.1309 84.5538 98.3157 83.3446 98.3157C81.7034 98.3157 80.0448 97.7817 78.3822 96.7097C76.722 95.635 74.6457 93.5846 72.1693 90.5599C71.0053 89.1106 70.2018 88.1962 69.7477 87.8376C74.4933 86.9232 78.3957 84.6538 81.439 81.0219C84.4816 77.3916 86.0044 73.2484 86.0044 68.6048C86.0044 63.0913 84.0163 58.4576 80.0694 54.6797C76.1194 50.9015 71.2618 49 65.4999 49ZM88.5848 49L88.6444 50.1947C91.1295 50.1947 92.5214 50.917 92.8326 52.3687C92.9485 52.8881 93.0017 53.8471 93.0113 55.2281L92.9914 81.6486C92.9708 83.6219 92.6858 84.8818 92.1379 85.4286C91.5893 85.9715 90.6619 86.3115 89.3193 86.447L89.2598 87.6417H114.032L114.667 81.6486H113.536C113.213 83.2812 112.472 84.4508 111.293 85.1152C110.11 85.7845 108.02 86.1141 105 86.1141H102.658C99.9412 86.1141 98.3691 85.1449 97.9539 83.1959C97.8681 82.8103 97.8387 82.3968 97.8348 81.9424L97.934 55.2281C97.9334 53.258 98.1857 51.9378 98.7081 51.2915C99.2361 50.6475 100.188 50.2871 101.566 50.1947L101.507 49H88.5849H88.5848ZM65.8969 50.4493C70.1065 50.4493 73.5437 52.0852 76.1988 55.3848C78.853 58.6855 80.1687 63.2094 80.1687 68.9378C80.1687 74.366 78.834 78.7123 76.1591 81.9816C73.4841 85.2498 69.9239 86.8779 65.4999 86.8779C61.2497 86.8779 57.803 85.199 55.1583 81.8249C52.5159 78.4507 51.2082 74.0701 51.2082 68.6832C51.2082 63.1476 52.5318 58.7164 55.198 55.4044C57.8626 52.0959 61.4307 50.4493 65.8969 50.4493ZM122.865 56.129C122.261 56.129 121.8 56.3304 121.456 56.7362C121.103 57.1404 120.995 57.63 121.118 58.2247C121.237 58.8015 121.567 59.307 122.091 59.7327C122.612 60.158 123.174 60.379 123.778 60.379C124.362 60.379 124.808 60.158 125.128 59.7327C125.448 59.307 125.545 58.8015 125.426 58.2247C125.302 57.63 124.984 57.1404 124.493 56.7362C123.996 56.3304 123.449 56.129 122.865 56.129ZM139.201 60.1832C138.174 64.08 135.949 66.1888 132.532 66.5288L132.571 67.6452H136.561L136.482 80.8456C136.488 83.1025 136.558 84.605 136.72 85.3698C137.113 87.2007 138.325 88.1313 140.352 88.1313C143.286 88.1313 146.364 86.368 149.582 82.8433L148.61 82.0207C146.286 84.3419 144.231 85.5069 142.437 85.5069C141.334 85.5069 140.65 84.8811 140.392 83.6463C140.321 83.3464 140.293 82.996 140.293 82.5887L140.333 67.6452H146.426L146.367 65.8629H140.352V60.1832H139.201H139.201ZM162.762 65.1578C159.354 65.1578 156.581 66.7905 154.426 70.0346C152.281 73.2842 151.617 76.8845 152.461 80.8456C152.957 83.1658 153.945 84.9641 155.458 86.2316C156.968 87.4985 158.884 88.1313 161.174 88.1313C163.307 88.1313 166.277 87.5985 167.526 86.5253C168.779 85.4528 169.934 83.7152 171 81.3353L170.146 80.4539C168.446 83.5413 165.013 85.0956 162.425 85.0956C158.866 85.0956 156.687 83.1692 155.875 79.3376C155.769 78.8485 155.69 78.323 155.636 77.7707C159.87 77.1094 163.078 75.9383 165.244 74.2454C167.407 72.5516 169.58 70.7562 169.174 68.8594C168.932 67.7324 168.339 66.8462 167.427 66.1763C166.503 65.5067 164.103 65.1578 162.762 65.1578ZM125.505 65.2949L118.161 66.9597V68.2523L120.701 67.9389C121.932 67.9389 122.656 68.4888 122.885 69.5841C122.962 69.9507 123.01 70.4654 123.024 71.1118L122.944 82.9608C122.924 84.6005 122.739 85.5537 122.369 85.8399C121.995 86.1266 121.009 86.2707 119.411 86.2707L119.371 87.3871H131.023L131.003 86.2707C129.384 86.2707 128.335 86.1447 127.867 85.8986C127.407 85.6541 127.091 85.2091 126.954 84.5276C126.848 84.0365 126.802 83.1903 126.795 82.0207L126.835 65.2949H125.505H125.505ZM160.897 67.4885C161.606 67.4885 162.291 67.7587 162.981 68.2915C163.661 68.8224 164.076 69.4128 164.211 70.0541C164.876 73.2043 162.045 75.3822 155.676 76.5956C155.494 74.2986 155.898 72.2134 156.927 70.3283C157.948 68.4451 159.278 67.4885 160.897 67.4885Z"
                      fill="#003B57"/>
            </g>
            <defs>
                <linearGradient id="paint0_linear_307_145" x1="147.614" y1="5.2389" x2="147.614" y2="241.763"
                                gradientUnits="userSpaceOnUse">
                    <stop stop-color="#97D9F6"/>
                    <stop offset="0.920245" stop-color="#0F80CC"/>
                    <stop offset="1" stop-color="#0F80CC"/>
                </linearGradient>
                <clipPath id="clip0_307_145">
                    <rect width="256" height="256" rx="60" fill="white"/>
                </clipPath>
            </defs>
        </svg>
    </g>

    <g transform="translate(0, 300)">
        <svg class="icon" viewBox="0 0 1024 1024" version="1.1" xmlns="http://www.w3.org/2000/svg" width="256"
             height="256">
            <rect width="1024" height="1024" fill="#242938" rx="240"/>
            <path d="M861.0304 303.3088L161.792 705.8432a65.7408 65.7408 0 0 1-7.424-29.8496L153.6 337.3056c0-23.04 12.288-44.544 32.256-56.064L478.72 111.2064c19.968-11.52 44.7488-11.7248 64.6656-0.2048l293.7344 168.8576c10.1888 5.632 18.176 13.824 23.8592 23.4496z"
                  fill="#4C8EC0"/>
            <path d="M860.672 708.9664a62.976 62.976 0 0 1-22.528 21.7088l-293.12 169.984c-19.968 11.5712-44.544 11.776-64.6656 0.2048l-293.5296-168.8064a64.4096 64.4096 0 0 1-25.3952-26.7776l348.8256-199.5264 350.3616 203.264z"
                  fill="#004678"/>
            <path d="M511.232 267.1616a239.4112 239.4112 0 1 0 0 478.72 239.4112 239.4112 0 0 0 0-478.72z m0 359.5776a120.1152 120.1152 0 0 1-120.2176-120.2176 120.1152 120.1152 0 0 1 120.2176-120.1664 120.1152 120.1152 0 0 1 120.1664 120.1664 120.1152 120.1152 0 0 1-120.1664 120.2176z"
                  fill="#FFFFFF"/>
            <path d="M870.4 674.6112c0 12.288-3.5328 24.2176-9.728 34.3552L509.2352 506.5216l352.1024-202.6496c5.4784 9.5744 8.3968 20.3264 8.3968 31.6416L870.4 674.6112z"
                  fill="#005A92"/>
            <path d="M750.592 491.8784v27.3408h-27.3408v27.392h-27.3408v-27.392h-27.392v-27.3408h27.392v-27.3408h27.3408v27.3408h27.3408zM851.2512 492.8512v27.3408h-27.3408v27.392h-27.392v-27.392h-27.3408v-27.3408h27.3408v-27.3408h27.392v27.3408h27.3408z"
                  fill="#FFFFFF"/>
        </svg>
    </g>

    <g transform="translate(300, 300)">
        <svg xmlns="http://www.w3.org/2000/svg" width="256" height="256" viewBox="0 0 256 256">
            <defs>
                <linearGradient id="IconifyId192092c005354069547" x1="0%" x2="115.015%" y1="50%" y2="50%">
                    <stop offset="0%" stop-color="#FF318C"/>
                    <stop offset="15%" stop-color="#FB348C"/>
                    <stop offset="28%" stop-color="#F03C8C"/>
                    <stop offset="42%" stop-color="#DE4A8C"/>
                    <stop offset="54%" stop-color="#C45D8B"/>
                    <stop offset="67%" stop-color="#A2778B"/>
                    <stop offset="79%" stop-color="#79958A"/>
                    <stop offset="91%" stop-color="#49B98A"/>
                    <stop offset="100%" stop-color="#21D789"/>
                </linearGradient>
                <linearGradient id="IconifyId192092c005354069548" x1="53.816%" x2="43.444%" y1="17.257%" y2="151.488%">
                    <stop offset="9%" stop-color="#21D789"/>
                    <stop offset="90%" stop-color="#009AE5"/>
                </linearGradient>
                <linearGradient id="IconifyId192092c005354069549" x1="93.049%" x2="-9.597%" y1="9.981%" y2="113.191%">
                    <stop offset="9%" stop-color="#21D789"/>
                    <stop offset="90%" stop-color="#009AE5"/>
                </linearGradient>
                <linearGradient id="IconifyId192092c005354069550" x1="32.388%" x2="91.688%" y1="46.039%" y2="52.244%">
                    <stop offset="9%" stop-color="#21D789"/>
                    <stop offset="90%" stop-color="#009AE5"/>
                </linearGradient>
            </defs>
            <path fill="url(#IconifyId192092c005354069547)" d="M92.027 100.107L97.573 0l58.214 32.267z"/>
            <path fill="url(#IconifyId192092c005354069548)" d="M92.027 100.107L97.573 0l-73.92 46.587L0 188.213z"/>
            <path fill="url(#IconifyId192092c005354069549)"
                  d="M250.907 76.72L217.973 9.76l-62.186 22.507l-63.76 67.84L0 188.213l83.013 60.427l104.347-94.107z"/>
            <path fill="url(#IconifyId192092c005354069550)"
                  d="M208 146.773V208H107.467l44.186 34.187l64 13.813L256 164.667z"/>
            <path fill="black" d="M48 48h160v160H48z"/>
            <path fill="#FFF"
                  d="M67.947 177.76h60v10h-60zm60.186-109.92h13.334v49.04h26.266V128h-39.6zM63.676 98.815l.004-.655a30.773 30.773 0 0 1 31.547-31.307a31.23 31.23 0 0 1 23.84 9.334l-8.4 9.786a22.35 22.35 0 0 0-15.494-6.826c-10.073 0-17.356 8.266-17.517 18.481l-.003.532c0 10.373 7.174 19.013 17.52 19.013c6.934 0 11.147-2.666 16-7.093l8.32 8.587a30.93 30.93 0 0 1-24.826 10.666a30.533 30.533 0 0 1-30.99-30.518"/>
        </svg>
    </g>

    <g transform="translate(600, 300)">
        <svg class="icon" viewBox="0 0 1024 1024" version="1.1" xmlns="http://www.w3.org/2000/svg" width="256"
             height="256">
            <rect width="1024" height="1024" fill="#242938" rx="240"/>
            <path d="M558.08 472.064c48.128 53.248-13.312 103.424-13.312 103.424s119.808-61.44 65.536-139.264c-51.2-71.68-91.136-107.52 122.88-232.448 0 1.024-335.872 86.016-175.104 268.288"
                  fill="#FF0000"/>
            <path d="M610.304 5.12s101.376 101.376-96.256 258.048C356.352 389.12 478.208 460.8 514.048 543.744 420.864 459.776 354.304 386.048 399.36 317.44 463.872 216.064 651.264 166.912 610.304 5.12"
                  fill="#FF0000"/>
            <path d="M720.896 757.76c183.296-95.232 98.304-188.416 39.936-175.104-15.36 3.072-21.504 5.12-21.504 5.12s5.12-8.192 16.384-11.264c117.76-40.96 207.872 120.832-37.888 186.368-1.024 0 2.048-3.072 3.072-5.12m-337.92 38.912s-37.888 21.504 26.624 29.696c76.8 8.192 117.76 8.192 202.752-8.192 0 0 23.552 15.36 53.248 26.624-191.488 80.896-433.152-5.12-282.624-48.128m-23.552-106.496s-43.008 31.744 23.552 37.888c82.944 8.192 149.504 10.24 261.12-13.312 0 0 16.384 16.384 40.96 24.576-231.424 68.608-490.496 5.12-325.632-49.152"
                  fill="#6699FF"/>
            <path d="M811.008 876.544s27.648 23.552-31.744 40.96c-111.616 34.816-460.8 45.056-558.08 2.048-34.816-15.36 31.744-35.84 51.2-40.96 21.504-5.12 34.816-3.072 34.816-3.072-38.912-28.672-251.904 52.224-107.52 75.776 390.144 62.464 712.704-28.672 611.328-74.752M400.384 578.56s-178.176 43.008-63.488 56.32c49.152 6.144 146.432 5.12 235.52-3.072 73.728-6.144 147.456-19.456 147.456-19.456s-26.624 11.264-45.056 24.576c-181.248 48.128-530.432 26.624-430.08-23.552 88.064-39.936 155.648-34.816 155.648-34.816"
                  fill="#6699FF"/>
            <path d="M418.816 1015.808c176.128 11.264 446.464-6.144 453.632-90.112 0 0-13.312 31.744-146.432 56.32-150.528 27.648-336.896 24.576-446.464 6.144 2.048 1.024 24.576 20.48 139.264 27.648"
                  fill="#6699FF"/>
        </svg>
    </g>

    <g transform="translate(900, 300)">
        <svg xmlns="http://www.w3.org/2000/svg" width="256" height="256" fill="none" viewBox="0 0 256 256">
            <path fill="url(#paint0_linear_159_762)"
                  d="M78.5714 184L30.2856 145.714L54.2856 101.143L123.143 128L78.5714 184Z"/>
            <path fill="url(#paint1_linear_159_762)"
                  d="M228 81.4285L224.286 197.143L147.429 228L101.143 198.286L168.857 128L139.143 63.1428L165.714 31.1428L228 81.4285Z"/>
            <path fill="url(#paint2_linear_159_762)"
                  d="M228 81.4285L167.143 153.429L139.143 63.1428L165.714 31.1428L228 81.4285Z"/>
            <path fill="url(#paint3_linear_159_762)"
                  d="M124.286 194L44 223.143L56.8571 178L73.7143 122.571L28 107.143L56.8571 28L119.714 35.7143L181.429 106.286L124.286 194Z"/>
            <path fill="#000" d="M190.571 66.5715H67.1428V190H190.571V66.5715Z"/>
            <path fill="#fff" d="M124.857 166.857H78.5713V174.571H124.857V166.857Z"/>
            <path fill="#fff"
                  d="M112 92.0001V82.5715H86.2856V92.0001H93.7142V124.286H86.2856V133.714H112V124.286H104.857V92.0001H112Z"/>
            <path fill="#fff"
                  d="M136.571 134.572C132.571 134.572 129.143 133.714 126.571 132.286C124 130.857 121.714 128.857 120 126.857L127.143 118.857C128.571 120.572 130 121.714 131.429 122.572C132.857 123.429 134.571 124 136.286 124C138.286 124 140 123.429 141.429 122C142.571 120.572 143.143 118.572 143.143 115.429V82.5715H154.571V116C154.571 119.143 154.286 121.714 153.429 124C152.571 126.286 151.429 128 149.714 129.714C148.286 131.143 146.286 132.572 144 133.143C141.714 134 139.429 134.572 136.571 134.572Z"/>
            <defs>
                <linearGradient id="paint0_linear_159_762" x1="30.256" x2="123.192" y1="142.541" y2="142.541"
                                gradientUnits="userSpaceOnUse">
                    <stop offset=".258" stop-color="#F97A12"/>
                    <stop offset=".459" stop-color="#B07B58"/>
                    <stop offset=".724" stop-color="#577BAE"/>
                    <stop offset=".91" stop-color="#1E7CE5"/>
                    <stop offset="1" stop-color="#087CFA"/>
                </linearGradient>
                <linearGradient id="paint1_linear_159_762" x1="101.621" x2="254.926" y1="99.086" y2="183.914"
                                gradientUnits="userSpaceOnUse">
                    <stop stop-color="#F97A12"/>
                    <stop offset=".072" stop-color="#CB7A3E"/>
                    <stop offset=".154" stop-color="#9E7B6A"/>
                    <stop offset=".242" stop-color="#757B91"/>
                    <stop offset=".334" stop-color="#537BB1"/>
                    <stop offset=".432" stop-color="#387CCC"/>
                    <stop offset=".538" stop-color="#237CE0"/>
                    <stop offset=".655" stop-color="#147CEF"/>
                    <stop offset=".792" stop-color="#0B7CF7"/>
                    <stop offset="1" stop-color="#087CFA"/>
                </linearGradient>
                <linearGradient id="paint2_linear_159_762" x1="208.651" x2="165.972" y1="150.615" y2="23.088"
                                gradientUnits="userSpaceOnUse">
                    <stop stop-color="#FE315D"/>
                    <stop offset=".078" stop-color="#CB417E"/>
                    <stop offset=".16" stop-color="#9E4E9B"/>
                    <stop offset=".247" stop-color="#755BB4"/>
                    <stop offset=".339" stop-color="#5365CA"/>
                    <stop offset=".436" stop-color="#386DDB"/>
                    <stop offset=".541" stop-color="#2374E9"/>
                    <stop offset=".658" stop-color="#1478F3"/>
                    <stop offset=".794" stop-color="#0B7BF8"/>
                    <stop offset="1" stop-color="#087CFA"/>
                </linearGradient>
                <linearGradient id="paint3_linear_159_762" x1="58.63" x2="186.639" y1="75.066" y2="286.8"
                                gradientUnits="userSpaceOnUse">
                    <stop stop-color="#FE315D"/>
                    <stop offset=".04" stop-color="#F63462"/>
                    <stop offset=".104" stop-color="#DF3A71"/>
                    <stop offset=".167" stop-color="#C24383"/>
                    <stop offset=".291" stop-color="#AD4A91"/>
                    <stop offset=".55" stop-color="#755BB4"/>
                    <stop offset=".917" stop-color="#1D76ED"/>
                    <stop offset="1" stop-color="#087CFA"/>
                </linearGradient>
            </defs>
        </svg>
    </g>

    <g transform="translate(1200, 300)">
        <svg xmlns="http://www.w3.org/2000/svg" width="256" height="256" fill="none" viewBox="0 0 256 256">
            <rect width="256" height="256" fill="#242938" rx="60"/>
            <g clip-path="url(#clip0_7_147)">
                <path fill="#fff" fill-rule="evenodd"
                      d="M203.801 178.21C194.011 177.938 186.416 178.941 180.051 181.619C178.218 182.355 175.277 182.355 175.035 184.662C176.015 185.63 176.133 187.214 176.992 188.556C178.459 190.991 181.033 194.271 183.357 195.973L191.191 201.571C195.965 204.488 201.351 206.193 206.002 209.113C208.696 210.817 211.388 213.007 214.082 214.834C215.454 215.807 216.285 217.392 218 217.997V217.629C217.144 216.538 216.897 214.957 216.044 213.735L212.367 210.209C208.82 205.465 204.41 201.325 199.636 197.922C195.718 195.245 187.152 191.596 185.56 187.097L185.319 186.824C188.008 186.552 191.191 185.605 193.764 184.875C197.929 183.784 201.721 184.024 206.002 182.93L211.882 181.226V180.135C209.678 177.946 208.087 175.025 205.763 172.959C199.521 167.606 192.661 162.373 185.56 157.994C181.766 155.562 176.868 153.977 172.829 151.913C171.356 151.182 168.911 150.817 168.055 149.601C165.846 146.929 164.625 143.397 163.034 140.232L152.997 119.064C150.794 114.319 149.444 109.574 146.755 105.195C134.144 84.5124 120.431 71.9828 99.375 59.6932C94.8477 57.1382 89.4616 56.0393 83.7353 54.7032L74.5546 54.2124C72.5928 53.3616 70.6364 51.0493 68.9216 49.9531C61.9441 45.5739 43.9475 36.0847 38.8029 48.5897C35.4966 56.4974 43.7006 64.2824 46.4855 68.299C48.5708 71.0966 51.2597 74.2597 52.7332 77.4228C53.5563 79.4897 53.8307 81.682 54.6895 83.8717C56.6458 89.2243 58.4842 95.1878 61.0551 100.178C62.427 102.733 63.8675 105.413 65.5824 107.723C66.5619 109.086 68.2768 109.67 68.6417 111.859C66.9268 114.294 66.8089 117.94 65.8293 120.986C61.42 134.734 63.1349 151.766 69.377 161.888C71.3389 164.928 75.9622 171.622 82.2345 169.065C87.744 166.875 86.5148 159.941 88.1062 153.857C88.4766 152.399 88.2297 151.425 88.9623 150.449V150.722L93.9834 160.819C97.7781 166.78 104.391 172.986 109.897 177.125C112.833 179.315 115.16 183.089 118.831 184.425V184.057H118.59C117.854 182.966 116.751 182.475 115.772 181.624C113.569 179.435 111.121 176.757 109.406 174.325C104.267 167.513 99.7399 159.968 95.6983 152.183C93.7365 148.412 92.0216 144.275 90.4357 140.504C89.6949 139.043 89.6949 136.85 88.4739 136.125C86.6355 138.797 83.9466 141.115 82.5939 144.398C80.2672 149.628 80.0257 156.077 79.1697 162.769C78.6758 162.891 78.8953 162.769 78.6758 163.041C74.7631 162.071 73.4132 158.051 71.9453 154.648C68.274 146.01 67.6594 132.141 70.8422 122.164C71.6983 119.609 75.375 111.579 73.9071 109.146C73.1662 106.834 70.7242 105.498 69.3743 103.671C67.7829 101.359 66.0735 98.4409 64.9705 95.8859C62.0346 89.0689 60.5667 81.5293 57.3812 74.7151C55.9077 71.552 53.3396 68.2662 51.257 65.3486C48.9303 62.0628 46.3648 59.7505 44.5265 55.8593C43.9146 54.4959 43.0585 52.3309 44.0381 50.8693C44.2795 49.8959 44.7734 49.5059 45.7475 49.2878C47.3389 47.9244 51.8716 49.6532 53.463 50.3785C57.9903 52.2054 61.7849 53.907 65.5796 56.4592C67.2945 57.6754 69.1329 59.9877 71.3361 60.5985H73.9098C77.8279 61.4493 82.2317 60.8712 85.9002 61.9619C92.3893 64.0343 98.2637 67.0719 103.532 70.3604C119.567 80.4577 132.792 94.8143 141.725 111.971C143.193 114.769 143.805 117.324 145.155 120.244C147.729 126.208 150.912 132.289 153.477 138.132C156.051 143.85 158.498 149.694 162.17 154.438C164.008 156.993 171.35 158.329 174.654 159.668C177.104 160.759 180.896 161.741 183.105 163.077C187.264 165.632 191.427 168.552 195.342 171.35C197.298 172.806 203.423 175.849 203.787 178.276L203.801 178.21ZM78.9584 72.4873C77.267 72.4724 75.5809 72.6769 73.9427 73.0954V73.3681H74.1842C75.1637 75.315 76.8786 76.6538 78.1023 78.3581L80.9202 84.1989L81.1616 83.9262C82.8765 82.71 83.7353 80.7631 83.7353 77.8454C83 76.9947 82.8793 76.1412 82.2674 75.2904C81.5321 74.0743 79.9407 73.4635 78.9584 72.4928V72.4873Z"
                      clip-rule="evenodd"/>
            </g>
            <defs>
                <clipPath id="clip0_7_147">
                    <rect width="180" height="180" fill="#fff" transform="translate(38 38)"/>
                </clipPath>
            </defs>
        </svg>
    </g>

    <g transform="translate(1500, 300)">
        <svg xmlns="http://www.w3.org/2000/svg" width="256" height="256" fill="none" viewBox="0 0 256 256">
            <rect width="256" height="256" fill="#470137" rx="60"/>
            <g clip-path="url(#clip0_7_283)">
                <path fill="#FF61F6"
                      d="M24.311 174.691V65.47a1.23 1.23 0 0 1 1.142-1.374l.279-.018l.921-.053l1.049-.048l1.595-.057l1.82-.05l1.515-.031l7.032-.114l4.061-.058l2.578-.03l2.643-.025l2.708-.017l2.774-.01l2.839-.004q19.152 0 31.902 6.738l.564.303a46.3 46.3 0 0 1 19.332 19.32q6.444 12.28 6.445 28.25a66 66 0 0 1-3.345 21.896a51.7 51.7 0 0 1-9.136 16.4a55 55 0 0 1-13.133 11.421a56.2 56.2 0 0 1-15.662 6.698a65.7 65.7 0 0 1-16.478 2.146H44.321l-2.506-.007l-2.435-.014l-2.362-.02l-2.29-.028l-2.72-.045l-2.392-.055l-1.664-.052l-1.442-.058l-.638-.031l-.582-.033q-.98 0-.979-1.718m22.514-89.988v71.098q1.794 0 3.263.086l1.994.115l1.024.056q1.327.077 2.957.085l.551.001c4.944.066 9.86-.748 14.52-2.404a29.5 29.5 0 0 0 11.176-7.213a32.65 32.65 0 0 0 7.178-11.85a47.1 47.1 0 0 0 2.529-15.97a42.2 42.2 0 0 0-2.447-15.027a28 28 0 0 0-18.191-17.26A46.1 46.1 0 0 0 58.11 84.36l-1.902.003l-1.478.013l-.91.014l-.852.02l-.793.023l-.933.037l-1.173.054l-1.893.1zm164.195 91.722h-19.964a1.52 1.52 0 0 1-1.277-.429a5.2 5.2 0 0 1-.639-1.288l-.775-3.309l-.5-2.149l-.72-3.138l-.69-3.036l-.655-2.934l-.623-2.832l-.78-3.616l-1.1-5.232l-1.32-6.386l-.864-4.269l-1.13-5.715l-.82-4.25l-.59-3.15l-.44-2.415l-.214-1.199l-.293-1.696l-.178-1.063l-.163-1.008l-.218-1.409l-.065-.442h-.16a674 674 0 0 0-2.954 13.653a438 438 0 0 1-2.955 13.31l-1.192 4.959l-1.294 5.31l-1.395 5.66l-1.19 4.781l-1.58 6.291l-1.335 5.284q-.32 1.718-1.757 1.717h-19.964a2.4 2.4 0 0 1-1.517-.343a2.9 2.9 0 0 1-.718-1.202l-20.763-82.432q-.48-1.373 1.278-1.374h20.123q1.438 0 1.597 1.03l1.19 5.274l.677 3.027l1.272 5.745l1.344 6.182l.868 4.073l.546 2.614l.346 1.687l.332 1.64l.317 1.596l.448 2.308l.416 2.205l.259 1.413l.244 1.368l.34 1.967l1.204 7.18l.817 4.755l.841 4.852l.518 3.08h.32q.212-2.094.625-4.157l.254-1.217l.841-4.175l1.051-5.316l.41-2.026l.758-3.657l2.485-11.703l1.214-5.798l.613-2.942l.39-1.818l.416-1.868l.216-.953l.452-1.943l.475-1.993l.499-2.043l.523-2.093l.547-2.142l.572-2.192l.595-2.243c.041-.48.177-.947.4-1.374q.238-.342 1.197-.343h20.922q.958.002 1.118 1.202l.487 2.1l.702 3.063l.45 1.983l.856 3.825l.799 3.637l.74 3.45l.518 2.464l1.994 9.694l.874 4.31l.327 1.624l.328 1.667l.31 1.608l.289 1.548l.137.752l.26 1.46l.239 1.4l.22 1.342l.2 1.282l.377 2.515l.278 1.772l.181 1.113l.18 1.058l.175 1.003l.26 1.401q.54 2.684.798 5.41h.32q.73-2.989 1.329-6.848l.217-1.431l.234-1.493l.257-1.555l.28-1.617q.072-.412.148-.832l.313-1.71l1.045-5.504l.556-2.96l.772-4.165l.36-1.957l.34-1.795l.36-1.85l.378-1.905l.4-1.96l.418-2.015l.439-2.07l.458-2.125l.512-2.334l.53-2.39l.551-2.446l.57-2.503l.59-2.558l.61-2.615l.63-2.671q.318-1.373 1.438-1.374h18.686q1.436 0 1.118 1.545l-22.999 82.26a3.8 3.8 0 0 1-.639 1.203a1.75 1.75 0 0 1-1.278.343"/>
            </g>
            <defs>
                <clipPath id="clip0_7_283">
                    <rect width="200" height="200" fill="#fff" transform="translate(28 28)"/>
                </clipPath>
            </defs>
        </svg>
    </g>

    <g transform="translate(1800, 300)">
        <svg xmlns="http://www.w3.org/2000/svg" width="256" height="256" fill="none" viewBox="0 0 256 256">
            <rect width="256" height="256" fill="#E14E1D" rx="60"/>
            <path fill="#fff"
                  d="M48 38L56.6098 134.593H167.32L163.605 176.023L127.959 185.661L92.38 176.037L90.0012 149.435H57.9389L62.5236 200.716L127.951 218.888L193.461 200.716L202.244 102.655H85.8241L82.901 69.9448H205.041H205.139L208 38H48Z"/>
            <path fill="#EBEBEB" d="M128 38H48L56.6098 134.593H128V102.655H85.8241L82.901 69.9448H128V38Z"/>
            <path fill="#EBEBEB"
                  d="M128 185.647L127.959 185.661L92.38 176.037L90.0012 149.435H57.9388L62.5236 200.716L127.951 218.888L128 218.874V185.647Z"/>
        </svg>
    </g>

    <g transform="translate(2100, 300)">
        <svg class="icon" viewBox="0 0 1024 1024" version="1.1" xmlns="http://www.w3.org/2000/svg"
             width="256" height="256">
            <path d="M88.064 27.648l77.824 871.424L512 996.352l346.112-97.28 77.824-871.424z" fill="#2196F3"/>
            <path d="M771.072 312.32l-10.24 109.568-29.696 328.704L512 811.008l-220.16-60.416-14.336-172.032h107.52l7.168 89.088L512 700.416l119.808-32.768 16.384-148.48-375.808 1.024-11.264-101.376 395.264-4.096 8.192-108.544-413.696 1.024-7.168-101.376h536.576z"
                  fill="#FAFAFA"/>
        </svg>
    </g>

    <g transform="translate(0, 600)">
        <svg xmlns="http://www.w3.org/2000/svg" width="256" height="256" fill="none" viewBox="0 0 256 256">
            <rect width="256" height="256" fill="#F03C2E" rx="60"/>
            <g clip-path="url(#clip0_7_283)">
                <path fill="#fff"
                      d="M224.225 119.094L136.906 31.775C135.711 30.5787 134.291 29.6298 132.729 28.9824C131.166 28.3349 129.491 28.0017 127.8 28.0017C126.109 28.0017 124.434 28.3349 122.871 28.9824C121.309 29.6298 119.889 30.5787 118.694 31.775L100.569 49.9L123.569 72.9C128.919 71.025 135.044 72.3062 139.306 76.5687C141.335 78.6014 142.752 81.1638 143.394 83.9632C144.036 86.7626 143.878 89.6862 142.937 92.4L165.106 114.569C170.469 112.719 176.656 113.912 180.937 118.206C182.361 119.63 183.49 121.32 184.26 123.18C185.03 125.04 185.426 127.033 185.426 129.046C185.425 131.059 185.029 133.052 184.258 134.912C183.487 136.771 182.358 138.461 180.934 139.884C179.511 141.308 177.821 142.436 175.961 143.206C174.101 143.977 172.108 144.373 170.095 144.372C168.082 144.372 166.088 143.975 164.229 143.205C162.369 142.434 160.679 141.305 159.256 139.881C154.756 135.381 153.644 128.756 155.919 123.212L135.244 102.537V156.944C136.745 157.686 138.116 158.666 139.306 159.844C140.729 161.267 141.858 162.956 142.629 164.816C143.399 166.675 143.795 168.668 143.795 170.681C143.795 172.694 143.399 174.687 142.629 176.546C141.858 178.406 140.729 180.096 139.306 181.519C137.883 182.942 136.193 184.071 134.334 184.841C132.474 185.611 130.481 186.008 128.469 186.008C126.456 186.008 124.463 185.611 122.604 184.841C120.744 184.071 119.054 182.942 117.631 181.519C116.206 180.096 115.076 178.407 114.305 176.548C113.533 174.688 113.136 172.694 113.136 170.681C113.136 168.668 113.533 166.675 114.305 164.815C115.076 162.955 116.206 161.266 117.631 159.844C119.112 158.369 120.756 157.25 122.65 156.5V101.587C120.825 100.837 119.112 99.7312 117.631 98.2437C115.479 96.0943 114.016 93.3526 113.428 90.3684C112.841 87.3841 113.155 84.2924 114.331 81.4875L91.6437 58.8125L31.7687 118.625C30.5716 119.821 29.6219 121.241 28.9739 122.804C28.3259 124.367 27.9924 126.042 27.9924 127.734C27.9924 129.426 28.3259 131.102 28.9739 132.665C29.6219 134.228 30.5716 135.648 31.7687 136.844L119.094 224.156C120.289 225.352 121.709 226.301 123.271 226.949C124.834 227.596 126.509 227.929 128.2 227.929C129.891 227.929 131.566 227.596 133.129 226.949C134.691 226.301 136.111 225.352 137.306 224.156L224.225 137.375C225.422 136.179 226.372 134.759 227.02 133.196C227.668 131.633 228.001 129.958 228.001 128.266C228.001 126.574 227.668 124.898 227.02 123.335C226.372 121.772 225.422 120.352 224.225 119.156"/>
            </g>
            <defs>
                <clipPath id="clip0_7_283">
                    <rect width="200" height="200" fill="#fff" transform="translate(28 28)"/>
                </clipPath>
            </defs>
        </svg>
    </g>

    <g transform="translate(300, 600)">
        <svg width="256" height="256" viewBox="0 0 256 256" fill="none" xmlns="http://www.w3.org/2000/svg">
            <rect width="256" height="256" rx="60" fill="#242938"/>
            <path d="M128.001 30C72.7791 30 28 74.7708 28 130.001C28 174.184 56.6533 211.668 96.3867 224.891C101.384 225.817 103.219 222.722 103.219 220.081C103.219 217.696 103.126 209.819 103.083 201.463C75.2631 207.512 69.3927 189.664 69.3927 189.664C64.8437 178.105 58.2894 175.032 58.2894 175.032C49.2163 168.825 58.9733 168.953 58.9733 168.953C69.0151 169.658 74.3026 179.258 74.3026 179.258C83.2217 194.546 97.6965 190.126 103.403 187.571C104.301 181.107 106.892 176.696 109.752 174.199C87.5405 171.67 64.1913 163.095 64.1913 124.778C64.1913 113.86 68.0977 104.939 74.4947 97.9362C73.4564 95.4175 70.0335 85.2465 75.4635 71.4722C75.4635 71.4722 83.8609 68.7845 102.971 81.7226C110.948 79.5069 119.502 78.3958 128.001 78.3577C136.499 78.3958 145.061 79.5069 153.052 81.7226C172.139 68.7845 180.525 71.4722 180.525 71.4722C185.968 85.2465 182.544 95.4175 181.505 97.9362C187.917 104.939 191.797 113.86 191.797 124.778C191.797 163.187 168.403 171.644 146.135 174.119C149.722 177.223 152.918 183.308 152.918 192.638C152.918 206.018 152.802 216.787 152.802 220.081C152.802 222.742 154.602 225.86 159.671 224.878C199.383 211.64 228 174.169 228 130.001C228 74.7708 183.227 30 128.001 30ZM65.4536 172.453C65.2333 172.95 64.4517 173.099 63.7396 172.758C63.0143 172.432 62.6069 171.754 62.8421 171.256C63.0574 170.744 63.8406 170.602 64.5643 170.945C65.2913 171.271 65.7053 171.955 65.4536 172.453ZM70.3725 176.842C69.8956 177.285 68.9633 177.079 68.3307 176.38C67.6766 175.683 67.554 174.751 68.0376 174.302C68.5294 173.86 69.4336 174.067 70.0893 174.764C70.7434 175.47 70.8709 176.395 70.3725 176.842ZM73.7471 182.458C73.1344 182.884 72.1325 182.485 71.5132 181.595C70.9004 180.706 70.9004 179.64 71.5264 179.212C72.1474 178.785 73.1344 179.169 73.762 180.052C74.373 180.956 74.373 182.023 73.7471 182.458ZM79.4542 188.962C78.9061 189.566 77.7386 189.404 76.8841 188.579C76.0098 187.773 75.7663 186.629 76.3161 186.024C76.8709 185.418 78.045 185.589 78.9061 186.407C79.7738 187.211 80.0387 188.364 79.4542 188.962ZM86.8301 191.157C86.5883 191.941 85.4639 192.297 84.3312 191.964C83.2002 191.621 82.46 190.704 82.6885 189.912C82.9237 189.124 84.053 188.753 85.194 189.109C86.3234 189.45 87.0652 190.361 86.8301 191.157ZM95.2242 192.089C95.2523 192.913 94.2919 193.597 93.1029 193.612C91.9073 193.639 90.9402 192.971 90.9269 192.16C90.9269 191.327 91.8659 190.65 93.0615 190.63C94.2505 190.607 95.2242 191.269 95.2242 192.089ZM103.47 191.773C103.613 192.577 102.787 193.404 101.606 193.624C100.445 193.836 99.3702 193.339 99.2229 192.541C99.0788 191.716 99.92 190.89 101.079 190.676C102.262 190.471 103.32 190.955 103.47 191.773Z"
                  fill="white"/>
        </svg>
    </g>

    <g transform="translate(600, 600)">
        <svg xmlns="http://www.w3.org/2000/svg" width="256" height="256" fill="none" viewBox="0 0 256 256">
            <rect width="256" height="256" fill="#242938" rx="60"/>
            <path fill="#ECEFF1"
                  d="M85.9493 199.926L110.48 213.546H147.576L182.278 187.491L197.834 146.632L161.935 103.405L151.764 79.1268L102.104 80.9032L102.702 94.5228L93.1291 112.287L78.1713 141.303L75.1797 165.581L85.9493 199.926Z"/>
            <path fill="#263238"
                  d="M187.064 114.656C177.491 101.036 169.713 92.7463 165.525 75.5738C161.337 58.4013 166.722 63.1386 163.132 48.3347C161.337 40.6367 158.345 35.3073 155.354 31.1622C151.764 27.0171 147.576 24.6485 145.182 24.0563C139.798 21.0956 127.233 16.3583 111.677 24.6485C95.5223 32.9387 97.3172 50.7033 100.309 86.8248C100.309 89.1934 99.7105 92.1542 98.5139 94.5228C96.1206 99.8522 91.9324 104.589 88.3425 108.735C84.1543 114.656 79.9661 120.578 76.9746 127.091C69.7948 140.711 63.2134 157.883 65.0083 164.397C67.9999 163.805 105.694 220.652 105.694 221.836C108.087 221.244 118.258 221.244 127.233 221.244C139.798 220.652 146.977 220.06 157.149 222.428C157.149 220.652 156.55 218.875 156.55 217.099C156.55 213.546 157.149 210.585 157.747 206.44C158.345 203.479 158.944 200.519 159.542 196.966C153.559 202.295 142.789 208.217 132.618 209.993C123.643 211.769 108.685 208.809 101.505 199.926C102.104 199.926 103.3 199.926 103.899 199.334C105.694 198.742 107.489 198.15 108.087 196.966C109.882 194.005 108.685 191.044 107.489 189.268C106.292 187.491 97.3173 180.977 93.1291 177.425C88.9409 173.872 86.5476 172.095 84.1544 169.727C84.1544 169.727 80.5645 166.174 79.3678 164.989C78.1712 163.805 77.5729 162.621 76.9746 162.028C75.778 159.068 75.1796 155.515 75.778 150.778C76.3763 144.264 78.7695 138.934 81.7611 133.013C82.9577 130.644 85.9493 125.907 85.9493 125.907C85.9493 125.907 75.778 150.778 81.1628 158.476C81.1628 158.476 81.7611 150.778 84.1544 143.08C85.9493 137.75 88.9409 130.052 92.5307 125.907C96.1206 121.762 105.095 106.366 105.694 96.8914C105.694 92.7463 106.292 88.6012 106.292 85.6405C103.899 83.2718 145.781 77.3503 148.174 83.864C148.772 86.2326 157.149 107.55 161.935 118.801C164.328 124.131 167.32 128.868 169.115 134.789C170.91 141.303 172.106 150.185 172.106 159.068C172.106 160.844 172.106 163.805 171.508 166.766C172.705 166.766 196.039 141.895 168.517 121.17C168.517 121.17 185.269 128.868 185.868 144.264C186.466 156.699 181.081 166.766 179.885 168.542C180.483 168.542 192.449 173.872 193.047 173.872C195.441 173.872 200.227 172.095 200.227 172.095C200.826 170.319 202.62 165.581 202.62 163.805C206.809 150.185 196.637 128.276 187.064 114.656V114.656Z"/>
            <path fill="#ECEFF1"
                  d="M111.078 75.5738C115.374 75.5738 118.856 70.2714 118.856 63.7307C118.856 57.1899 115.374 51.8876 111.078 51.8876C106.783 51.8876 103.3 57.1899 103.3 63.7307C103.3 70.2714 106.783 75.5738 111.078 75.5738Z"/>
            <path fill="#ECEFF1"
                  d="M138.002 76.7581C143.62 76.7581 148.174 70.6604 148.174 63.1386C148.174 55.6167 143.62 49.519 138.002 49.519C132.385 49.519 127.831 55.6167 127.831 63.1386C127.831 70.6604 132.385 76.7581 138.002 76.7581Z"/>
            <path fill="#212121"
                  d="M115.424 64.5411C114.927 60.6476 112.663 57.7241 110.368 58.0111C108.074 58.2982 106.616 61.6872 107.114 65.5807C107.611 69.4741 109.874 72.3977 112.169 72.1106C114.464 71.8235 115.921 68.4345 115.424 64.5411Z"/>
            <path fill="#212121"
                  d="M137.404 73.2052C140.709 73.2052 143.387 69.7587 143.387 65.5072C143.387 61.2557 140.709 57.8091 137.404 57.8091C134.1 57.8091 131.421 61.2557 131.421 65.5072C131.421 69.7587 134.1 73.2052 137.404 73.2052Z"/>
            <path fill="#FFC107"
                  d="M216.98 195.781C214.587 194.597 210.398 192.82 206.808 187.491C205.014 184.53 205.612 176.24 202.62 172.687C200.825 170.319 198.432 171.503 197.834 171.503C192.449 172.687 179.884 180.977 171.508 171.503C170.311 170.319 168.516 168.542 165.525 168.542C162.533 168.542 161.337 169.726 160.14 172.095C158.943 174.464 158.943 176.24 158.943 182.162C158.943 186.899 158.943 192.228 158.345 196.373C157.148 206.44 155.354 212.362 155.354 218.283C155.354 224.797 157.148 228.942 159.542 230.718C161.337 232.495 164.328 233.679 170.91 233.679C177.491 233.679 181.679 231.311 185.868 227.165C188.859 224.205 191.252 223.02 199.629 217.099C206.21 212.954 216.382 207.624 218.176 205.848C219.373 204.664 221.168 204.071 221.168 200.518C221.168 197.558 218.775 196.373 216.98 195.781V195.781Z"/>
            <path fill="#FFC107"
                  d="M96.7189 197.558C90.7357 188.083 90.1374 186.307 85.9492 180.385C82.3593 174.464 74.5813 163.213 69.7948 163.213C66.2049 163.213 64.4099 164.989 62.0167 167.358C59.6234 169.726 57.2302 175.056 53.042 178.017C49.4521 180.977 39.2808 180.385 36.8875 183.938C34.4942 187.491 39.2808 192.821 39.2808 201.703C39.2808 205.256 36.2892 207.624 35.6909 209.993C35.0926 212.954 34.4942 214.73 35.6909 217.099C38.0841 220.652 41.0757 221.836 61.4184 225.981C72.188 228.35 82.3593 234.271 88.9408 234.864C95.5222 235.456 106.89 234.864 106.89 218.875C107.489 209.401 102.104 207.032 96.7189 197.558Z"/>
            <path fill="#FFC107"
                  d="M108.087 90.3777C104.497 88.0091 101.505 85.6404 101.505 82.0875C101.505 78.5346 103.899 77.3503 107.489 74.3895C108.087 73.7973 114.668 67.8758 121.25 67.8758C127.831 67.8758 135.609 72.0209 138.601 73.2052C143.986 74.3895 149.37 75.5738 148.772 79.7189C148.174 85.6404 147.576 86.8248 141.592 89.7855C137.404 90.9698 129.626 97.4835 124.241 97.4835C121.848 97.4835 118.258 97.4835 115.865 96.8914C114.07 96.2992 111.078 93.3385 108.087 90.3777V90.3777Z"/>
            <path fill="#634703"
                  d="M106.89 85.6405C108.087 86.8248 109.882 88.0091 111.677 88.6012C112.873 89.1934 114.668 89.7856 114.668 89.7856C117.062 89.7856 118.857 89.7856 120.053 89.7856C123.045 89.7856 127.233 88.6013 131.421 86.2326C135.609 84.4562 136.208 83.2718 139.199 82.0875C142.191 80.3111 145.182 78.5346 143.986 77.9425C142.789 77.3503 141.592 77.9425 137.404 80.3111C133.814 82.6797 130.823 83.864 127.233 85.6405C125.438 86.2326 123.045 87.4169 121.25 87.4169C119.455 87.4169 117.66 87.4169 115.865 87.4169C114.07 87.4169 112.873 86.8248 111.078 86.2326C109.882 85.6405 109.283 85.0483 108.685 85.0483C107.489 84.4562 105.095 82.0875 103.899 81.4954C103.899 81.4954 102.702 81.4954 103.3 82.0875C105.095 83.864 105.694 84.4562 106.89 85.6405Z"/>
            <path fill="#634703"
                  d="M124.84 72.613C125.438 73.7973 126.635 73.7973 127.233 74.3895C127.831 74.9816 128.429 74.9816 128.429 74.9816C129.028 74.3895 128.429 73.2052 127.831 73.2052C127.831 72.0209 124.84 72.0209 124.84 72.613V72.613Z"/>
            <path fill="#634703"
                  d="M115.267 73.7973C115.267 74.3895 116.463 74.9816 116.463 74.3895C117.062 73.7973 117.66 73.2052 118.258 73.2052C119.455 72.613 118.856 72.0209 117.062 72.0209C115.865 72.613 115.865 73.2052 115.267 73.7973V73.7973Z"/>
            <path fill="#455A64"
                  d="M173.303 178.609C173.303 179.201 173.303 179.793 173.303 180.385C174.5 182.754 177.491 183.346 179.884 183.346C183.474 183.346 187.064 180.977 188.859 178.609C188.859 178.017 189.457 177.424 190.056 176.832C191.252 175.056 191.851 173.872 192.449 173.279C192.449 173.279 191.851 172.687 191.851 172.095C191.252 170.911 189.457 169.726 187.064 169.134C185.269 168.542 182.278 167.95 181.081 167.95C175.696 167.358 172.705 169.134 170.91 170.911C170.91 170.911 171.508 170.911 171.508 171.503C172.705 172.687 173.303 173.872 173.303 175.648C173.901 176.832 173.303 177.424 173.303 178.609V178.609Z"/>
        </svg>
    </g>

    <g transform="translate(900, 600)">
        <svg xmlns="http://www.w3.org/2000/svg" width="256" height="256" fill="none" viewBox="0 0 256 256">
            <rect width="256" height="256" fill="#242938" rx="60"/>
            <path stroke="#fff" stroke-width="10"
                  d="M217 69H39C33.4772 69 29 73.4772 29 79V177C29 182.523 33.4772 187 39 187H217C222.523 187 227 182.523 227 177V79C227 73.4772 222.523 69 217 69Z"/>
            <path fill="#fff"
                  d="M54 162V94H74L94 119L114 94H134V162H114V123L94 148L74 123V162H54ZM179 162L149 129H169V94H189V129H209L179 162Z"/>
        </svg>
    </g>

    <g transform="translate(1200, 600)">
        <svg width="256" height="256" viewBox="0 0 256 256" fill="none" xmlns="http://www.w3.org/2000/svg">
            <rect width="256" height="256" fill="#242938" rx="60"/>
            <path d="M180.975 90.4153L167.567 103.824C189.508 125.765 189.508 161.115 167.567 182.65C145.625 204.591 110.275 204.591 88.7404 182.65C66.7991 160.709 66.7991 125.359 88.7404 103.824L123.481 69.0835L128.357 64.2077V38L75.9413 90.4153C46.6862 119.67 46.6862 166.804 75.9413 196.059C105.196 225.314 152.33 225.314 180.975 196.059C210.23 166.6 210.23 119.67 180.975 90.4153Z"
                  fill="#EE4C2C"/>
            <path d="M154.77 87.1705C160.156 87.1705 164.522 82.8045 164.522 77.4188C164.522 72.0331 160.156 67.667 154.77 67.667C149.385 67.667 145.019 72.0331 145.019 77.4188C145.019 82.8045 149.385 87.1705 154.77 87.1705Z"
                  fill="#EE4C2C"/>
        </svg>
    </g>

    <g transform="translate(1500, 600)">
        <svg xmlns="http://www.w3.org/2000/svg" width="256" height="256" fill="none" viewBox="0 0 256 256">
            <rect width="256" height="256" fill="#242938" rx="60"/>
            <path fill="#000"
                  d="M17 120H237.641V193.109C237.641 210.289 223.605 223.445 205.285 223.445H49.3555C31.0312 223.445 17 210.289 17 193.109V120Z"/>
            <path fill="#FFB13B" stroke="#000" stroke-width="28.695"
                  d="M61.6328 108.908C54.8086 102.506 43.7422 102.506 36.918 108.908C30.0938 115.307 30.0938 125.682 36.918 132.084C43.7422 138.482 54.8086 138.482 61.6328 132.084H192.848C199.676 138.482 210.738 138.482 217.566 132.084C224.391 125.682 224.391 115.307 217.566 108.908C210.738 102.506 199.676 102.506 192.848 108.908H61.6328Z"/>
            <path fill="#FFB13B" stroke="#000" stroke-width="28.725"
                  d="M89.5898 68.8027C89.5898 59.7481 81.7656 52.4121 72.1133 52.4121C62.457 52.4121 54.6328 59.7481 54.6328 68.8027C54.6328 77.8535 62.457 85.1894 72.1133 85.1894L164.895 172.189C164.895 181.24 172.719 188.576 182.371 188.576C192.023 188.576 199.848 181.24 199.848 172.189C199.848 163.139 192.023 155.803 182.371 155.803L89.5898 68.8027Z"/>
            <path fill="#FFB13B" stroke="#000" stroke-width="28.695"
                  d="M139.602 58.9785C146.426 52.5762 146.426 42.2012 139.602 35.7988C132.773 29.4004 121.707 29.4004 114.883 35.7988C108.059 42.2012 108.059 52.5762 114.883 58.9785L114.883 182.014C108.059 188.412 108.059 198.791 114.883 205.189C121.707 211.592 132.773 211.592 139.602 205.189C146.426 198.791 146.426 188.412 139.602 182.014V58.9785Z"/>
            <path fill="#FFB13B" stroke="#000" stroke-width="28.725"
                  d="M182.371 85.1895C192.023 85.1895 199.848 77.8536 199.848 68.8028C199.848 59.7481 192.023 52.4122 182.371 52.4122C172.719 52.4122 164.895 59.7481 164.895 68.8028L72.1133 155.803C62.457 155.803 54.6328 163.139 54.6328 172.189C54.6328 181.24 62.457 188.576 72.1133 188.576C81.7656 188.576 89.5898 181.24 89.5898 172.189L182.371 85.1895Z"/>
            <path fill="#FFB13B"
                  d="M61.6328 108.908C54.8086 102.506 43.7422 102.506 36.918 108.908C30.0938 115.307 30.0938 125.682 36.918 132.084C43.7422 138.482 54.8086 138.482 61.6328 132.084H192.848C199.676 138.482 210.738 138.482 217.566 132.084C224.391 125.682 224.391 115.307 217.566 108.908C210.738 102.506 199.676 102.506 192.848 108.908H61.6328Z"/>
            <path fill="#FFB13B"
                  d="M89.5898 68.8027C89.5898 59.748 81.7656 52.4121 72.1133 52.4121C62.457 52.4121 54.6328 59.748 54.6328 68.8027C54.6328 77.8535 62.457 85.1895 72.1133 85.1895L164.895 172.189C164.895 181.24 172.719 188.576 182.371 188.576C192.023 188.576 199.848 181.24 199.848 172.189C199.848 163.139 192.023 155.803 182.371 155.803L89.5898 68.8027Z"/>
            <path fill="#FFB13B"
                  d="M139.602 58.9785C146.426 52.5762 146.426 42.2012 139.602 35.7988C132.773 29.4004 121.707 29.4004 114.883 35.7988C108.059 42.2012 108.059 52.5762 114.883 58.9785V182.014C108.059 188.412 108.059 198.791 114.883 205.189C121.707 211.592 132.773 211.592 139.602 205.189C146.426 198.791 146.426 188.412 139.602 182.014V58.9785Z"/>
            <path fill="#FFB13B"
                  d="M182.371 85.1895C192.023 85.1895 199.848 77.8535 199.848 68.8027C199.848 59.748 192.023 52.4121 182.371 52.4121C172.719 52.4121 164.895 59.748 164.895 68.8027L72.1133 155.803C62.457 155.803 54.6328 163.139 54.6328 172.189C54.6328 181.24 62.457 188.576 72.1133 188.576C81.7656 188.576 89.5898 181.24 89.5898 172.189L182.371 85.1895Z"/>
            <path fill="#000" fill-opacity=".9"
                  d="M17 121H237.641V194.109C237.641 211.289 223.605 224.445 205.285 224.445H49.3555C31.0312 224.445 17 211.289 17 194.109V121Z"/>
            <path fill="#fff"
                  d="M50.0273 172.135C44.8516 167.283 41.6484 160.584 41.6484 153.186C41.6484 138.381 54.457 126.377 70.2383 126.377C86.0273 126.377 98.832 138.381 98.832 153.186H82.0859C82.0859 147.053 76.7773 142.084 70.2383 142.084C63.6992 142.084 58.3984 147.053 58.3984 153.186C58.3984 156.248 59.7266 159.025 61.8594 161.025H61.8672C64.0117 163.045 65.7969 163.627 70.2383 164.291C78.1367 165.061 85.2813 167.291 90.457 172.143C95.6328 176.998 98.832 183.697 98.832 191.096C98.832 205.9 86.0273 217.908 70.2383 217.908C54.457 217.908 41.6484 205.9 41.6484 191.096H58.3984C58.3984 197.229 63.6992 202.205 70.2383 202.205C76.7773 202.205 82.0859 197.229 82.0859 191.096C82.0859 188.033 80.7617 185.264 78.625 183.256H78.6172C76.4727 181.244 73.3945 180.553 70.2383 179.998V179.994C62.582 178.893 55.2031 176.99 50.0273 172.135Z"/>
            <path fill="#fff"
                  d="M156.016 126.377L135.789 217.908H119.043L98.832 126.377H115.582L127.434 179.986L139.266 126.377H156.016Z"/>
            <path fill="#fff"
                  d="M184.613 164.291H213.199V191.096H213.207C213.207 205.904 200.402 217.912 184.613 217.912C168.82 217.912 156.023 205.904 156.023 191.096V153.186H156.016C156.016 138.381 168.82 126.381 184.613 126.381C200.395 126.381 213.199 138.381 213.199 153.186H196.453C196.453 147.061 191.145 142.084 184.613 142.084C178.07 142.084 172.77 147.061 172.77 153.186V191.096C172.77 197.229 178.07 202.201 184.613 202.201C191.145 202.201 196.445 197.229 196.453 191.104V180.002H184.613V164.291Z"/>
        </svg>
    </g>
</svg>
  
